<svg viewBox="0 0 128 128" xmlns="http://www.w3.org/2000/svg" id="technology">
  <defs>
  <style>
    @media(prefers-color-scheme:dark){:root{--color-logo-shape:#000;--color-logo-base:#fff}}
    body[data-color-scheme="dark"]{--color-logo-shape:#000;--color-logo-base:#fff}
  </style>
  <path id="d" d="m6,47l58-47,58,47-58,45z"/>
  <path id="s" d="m6,47v12l58,45v-12z"/>
  <path id="h" d="m62,57.1-6.3,11.3-7-3.1,6-10.9-12,5.7-3.7-6.3,12.6-6,6.6.8-2.6,4.9,5.3-2.6,1.1,5.8,2.9-5.3,4.8,4.1,2.3,12.6-7.8,1.4zm22.2-25.2,3.7,6.2-12.4,5.9,13.8,1.6-1.1,7-14-1.7-4.8-4.1,5.8-2.8-6.4-.9,2.6-4.9-5.3,2.5-1.1-5.9,6.2-11.4,7,3.1-5.8,10.9zm-26.8,3.7.6,5.8-6-.6-9.8-8.6,5.4-5.2zm12.3,19.9-.7-5.7,6.1,1,9.9,8.7-5.4,4.7zm-17.9-14.7,4.7,4.1-5,3.1-14.2-1.4.1-7.2zm13.5-6.8-3.2,5.7-4.8-4.1-2-12.7,7.9-1.5z"/>
  </defs>
  <use href="#s" fill="#9ee0ff"/>
  <use href="#s" fill="#6bd0ff" y="12"/>
  <use href="#s" fill="#38c0ff" y="24"/>
  <g transform="matrix(-1 0 0 1 128 0)">
    <use href="#s" fill="#f29eff"/>
    <use href="#s" fill="#eb6bff" y="12"/>
    <use href="#s" fill="#e438ff" y="24"/>
  </g>
  <use href="#d" style="fill:var(--color-logo-base,#000)"/>
  <use href="#h" style="fill:var(--color-logo-shape,#fff)"/>
</svg>
